<svg width="266" height="73" viewBox="0 0 266 73" fill="none" xmlns="http://www.w3.org/2000/svg">
<g clip-path="url(#clip0_306_1728)">
<rect x="6" y="3" width="66" height="66" fill="url(#paint0_linear_306_1728)"/>
<path d="M34.68 47.16V52H14.96V23.6H34.32V28.44H20.48V35.28H32.44V39.76H20.48V47.16H34.68ZM62.8634 23.6V52H57.3834V39.88H44.5034V52H38.9834V23.6H44.5034V35.08H57.3834V23.6H62.8634Z" fill="white"/>
<path d="M81.24 37.6C81.24 35.8667 81.5467 34.1733 82.16 32.52C82.8 30.84 83.72 29.32 84.92 27.96C86.12 26.5733 87.5867 25.48 89.32 24.68C91.0533 23.8533 93.0267 23.44 95.24 23.44C97.8533 23.44 100.107 24.0133 102 25.16C103.92 26.3067 105.347 27.8 106.28 29.64L102.04 32.56C101.56 31.4933 100.933 30.6533 100.16 30.04C99.3867 29.4 98.56 28.96 97.68 28.72C96.8 28.4533 95.9333 28.32 95.08 28.32C93.6933 28.32 92.48 28.6 91.44 29.16C90.4267 29.72 89.5733 30.4533 88.88 31.36C88.1867 32.2667 87.6667 33.28 87.32 34.4C87 35.52 86.84 36.64 86.84 37.76C86.84 39.0133 87.04 40.2267 87.44 41.4C87.84 42.5467 88.4 43.5733 89.12 44.48C89.8667 45.36 90.7467 46.0667 91.76 46.6C92.8 47.1067 93.9333 47.36 95.16 47.36C96.04 47.36 96.9333 47.2133 97.84 46.92C98.7467 46.6267 99.5867 46.16 100.36 45.52C101.133 44.88 101.733 44.0533 102.16 43.04L106.68 45.64C106.12 47.0533 105.2 48.2533 103.92 49.24C102.667 50.2267 101.253 50.9733 99.68 51.48C98.1067 51.9867 96.5467 52.24 95 52.24C92.9733 52.24 91.12 51.8267 89.44 51C87.76 50.1467 86.3067 49.0267 85.08 47.64C83.88 46.2267 82.9333 44.6533 82.24 42.92C81.5733 41.16 81.24 39.3867 81.24 37.6ZM108.422 45.8C108.422 44.44 108.795 43.2533 109.542 42.24C110.315 41.2 111.382 40.4 112.742 39.84C114.102 39.28 115.662 39 117.422 39C118.302 39 119.195 39.0667 120.102 39.2C121.009 39.3333 121.795 39.5467 122.462 39.84V38.72C122.462 37.3867 122.062 36.36 121.262 35.64C120.489 34.92 119.329 34.56 117.782 34.56C116.635 34.56 115.542 34.76 114.502 35.16C113.462 35.56 112.369 36.1467 111.222 36.92L109.502 33.4C110.889 32.4933 112.302 31.8133 113.742 31.36C115.209 30.9067 116.742 30.68 118.342 30.68C121.329 30.68 123.649 31.4267 125.302 32.92C126.982 34.4133 127.822 36.5467 127.822 39.32V46C127.822 46.56 127.915 46.96 128.102 47.2C128.315 47.44 128.649 47.5867 129.102 47.64V52C128.622 52.08 128.182 52.1467 127.782 52.2C127.409 52.2533 127.089 52.28 126.822 52.28C125.755 52.28 124.942 52.04 124.382 51.56C123.849 51.08 123.515 50.4933 123.382 49.8L123.262 48.72C122.355 49.8933 121.222 50.8 119.862 51.44C118.502 52.08 117.115 52.4 115.702 52.4C114.315 52.4 113.062 52.12 111.942 51.56C110.849 50.9733 109.982 50.1867 109.342 49.2C108.729 48.1867 108.422 47.0533 108.422 45.8ZM121.462 46.88C121.755 46.56 121.995 46.24 122.182 45.92C122.369 45.6 122.462 45.3067 122.462 45.04V42.92C121.822 42.6533 121.129 42.4533 120.382 42.32C119.635 42.16 118.929 42.08 118.262 42.08C116.875 42.08 115.729 42.3867 114.822 43C113.942 43.5867 113.502 44.3733 113.502 45.36C113.502 45.8933 113.649 46.4 113.942 46.88C114.235 47.36 114.662 47.7467 115.222 48.04C115.782 48.3333 116.449 48.48 117.222 48.48C118.022 48.48 118.809 48.3333 119.582 48.04C120.355 47.72 120.982 47.3333 121.462 46.88ZM145.391 52.4C143.764 52.4 142.324 52.04 141.071 51.32C139.844 50.5733 138.884 49.5733 138.191 48.32V60.52H132.831V31.04H137.511V34.64C138.311 33.4133 139.324 32.4533 140.551 31.76C141.777 31.04 143.177 30.68 144.751 30.68C146.164 30.68 147.457 30.96 148.631 31.52C149.831 32.08 150.871 32.8667 151.751 33.88C152.631 34.8667 153.311 36.0133 153.791 37.32C154.297 38.6 154.551 39.9867 154.551 41.48C154.551 43.5067 154.151 45.3467 153.351 47C152.577 48.6533 151.497 49.9733 150.111 50.96C148.751 51.92 147.177 52.4 145.391 52.4ZM143.591 47.84C144.417 47.84 145.164 47.6667 145.831 47.32C146.497 46.9733 147.071 46.5067 147.551 45.92C148.057 45.3067 148.431 44.6267 148.671 43.88C148.937 43.1067 149.071 42.3067 149.071 41.48C149.071 40.6 148.924 39.7867 148.631 39.04C148.364 38.2933 147.964 37.64 147.431 37.08C146.897 36.4933 146.271 36.04 145.551 35.72C144.857 35.4 144.097 35.24 143.271 35.24C142.764 35.24 142.244 35.3333 141.711 35.52C141.204 35.68 140.711 35.92 140.231 36.24C139.751 36.56 139.324 36.9333 138.951 37.36C138.604 37.7867 138.351 38.2533 138.191 38.76V43.68C138.511 44.4533 138.937 45.16 139.471 45.8C140.031 46.44 140.671 46.9467 141.391 47.32C142.111 47.6667 142.844 47.84 143.591 47.84ZM158.182 52V31.04H163.542V52H158.182ZM158.182 28.12V22.8H163.542V28.12H158.182ZM180.938 50.92C180.484 51.1067 179.938 51.32 179.298 51.56C178.658 51.8 177.964 51.9867 177.218 52.12C176.498 52.28 175.764 52.36 175.018 52.36C174.031 52.36 173.124 52.1867 172.298 51.84C171.471 51.4933 170.804 50.9467 170.298 50.2C169.818 49.4267 169.578 48.4267 169.578 47.2V35.16H166.818V31.04H169.578V24.24H174.938V31.04H179.338V35.16H174.938V45.4C174.964 46.12 175.164 46.64 175.538 46.96C175.911 47.28 176.378 47.44 176.938 47.44C177.498 47.44 178.044 47.3467 178.578 47.16C179.111 46.9733 179.538 46.8133 179.858 46.68L180.938 50.92ZM182.289 45.8C182.289 44.44 182.662 43.2533 183.409 42.24C184.182 41.2 185.249 40.4 186.609 39.84C187.969 39.28 189.529 39 191.289 39C192.169 39 193.062 39.0667 193.969 39.2C194.876 39.3333 195.662 39.5467 196.329 39.84V38.72C196.329 37.3867 195.929 36.36 195.129 35.64C194.356 34.92 193.196 34.56 191.649 34.56C190.502 34.56 189.409 34.76 188.369 35.16C187.329 35.56 186.236 36.1467 185.089 36.92L183.369 33.4C184.756 32.4933 186.169 31.8133 187.609 31.36C189.076 30.9067 190.609 30.68 192.209 30.68C195.196 30.68 197.516 31.4267 199.169 32.92C200.849 34.4133 201.689 36.5467 201.689 39.32V46C201.689 46.56 201.782 46.96 201.969 47.2C202.182 47.44 202.516 47.5867 202.969 47.64V52C202.489 52.08 202.049 52.1467 201.649 52.2C201.276 52.2533 200.956 52.28 200.689 52.28C199.622 52.28 198.809 52.04 198.249 51.56C197.716 51.08 197.382 50.4933 197.249 49.8L197.129 48.72C196.222 49.8933 195.089 50.8 193.729 51.44C192.369 52.08 190.982 52.4 189.569 52.4C188.182 52.4 186.929 52.12 185.809 51.56C184.716 50.9733 183.849 50.1867 183.209 49.2C182.596 48.1867 182.289 47.0533 182.289 45.8ZM195.329 46.88C195.622 46.56 195.862 46.24 196.049 45.92C196.236 45.6 196.329 45.3067 196.329 45.04V42.92C195.689 42.6533 194.996 42.4533 194.249 42.32C193.502 42.16 192.796 42.08 192.129 42.08C190.742 42.08 189.596 42.3867 188.689 43C187.809 43.5867 187.369 44.3733 187.369 45.36C187.369 45.8933 187.516 46.4 187.809 46.88C188.102 47.36 188.529 47.7467 189.089 48.04C189.649 48.3333 190.316 48.48 191.089 48.48C191.889 48.48 192.676 48.3333 193.449 48.04C194.222 47.72 194.849 47.3333 195.329 46.88ZM206.658 22.8H212.018V45.28C212.018 46.24 212.178 46.8933 212.498 47.24C212.818 47.56 213.258 47.72 213.818 47.72C214.244 47.72 214.684 47.6667 215.138 47.56C215.591 47.4533 215.991 47.32 216.338 47.16L217.058 51.24C216.338 51.5867 215.498 51.8533 214.538 52.04C213.578 52.2267 212.711 52.32 211.938 52.32C210.258 52.32 208.951 51.88 208.018 51C207.111 50.0933 206.658 48.8133 206.658 47.16V22.8Z" fill="url(#paint1_linear_306_1728)"/>
</g>
<defs>
<linearGradient id="paint0_linear_306_1728" x1="39" y1="61.5" x2="39" y2="6.5" gradientUnits="userSpaceOnUse">
<stop stop-color="#5CE1E6"/>
<stop offset="1" stop-color="#5CE1E6" stop-opacity="0"/>
</linearGradient>
<linearGradient id="paint1_linear_306_1728" x1="157" y1="14" x2="157" y2="54" gradientUnits="userSpaceOnUse">
<stop stop-color="#5CE1E6"/>
<stop offset="1" stop-color="white"/>
</linearGradient>
<clipPath id="clip0_306_1728">
<rect width="266" height="73" fill="white"/>
</clipPath>
</defs>
</svg>
